<?xml version="1.0" encoding="UTF-8" standalone="no"?>
<!DOCTYPE svg PUBLIC "-//W3C//DTD SVG 1.1//EN" "http://www.w3.org/Graphics/SVG/1.1/DTD/svg11.dtd">
<svg width="100%" height="100%" viewBox="0 0 500 500" version="1.1" xmlns="http://www.w3.org/2000/svg" xmlns:xlink="http://www.w3.org/1999/xlink" xml:space="preserve" xmlns:serif="http://www.serif.com/" style="fill-rule:evenodd;clip-rule:evenodd;stroke-linejoin:round;stroke-miterlimit:2;">
    <g id="Layer-1" serif:id="Layer 1" transform="matrix(1,0,0,1,-47.6378,-170.945)">
        <g id="text4506">
            <path id="path815" d="M297.638,187.849C426.287,187.849 530.733,292.296 530.733,420.945C530.733,549.594 426.287,654.04 297.638,654.04C168.989,654.04 64.542,549.594 64.542,420.945C64.542,292.296 168.989,187.849 297.638,187.849ZM310.821,336.627L342.518,336.627L394.748,454.978L326.42,454.978L320.586,468.868L400.582,468.868L421.974,516.653L438.087,516.653L350.853,322.181L221.641,322.181L221.641,335.238L296.096,335.238L296.096,443.309C296.096,483.593 269.704,505.818 233.865,505.818C198.027,505.818 171.079,480.259 171.079,443.309L157.188,443.309C157.188,488.593 189.692,519.709 233.865,519.709C278.038,519.709 310.821,491.094 310.821,443.309L310.821,336.627Z" style="fill:rgb(60,60,60);"/>
        </g>
    </g>
</svg>
